# xmcd
#
# Track frame offsets:
#	150
#	20825
#	42466
#	63472
#	84161
#	103022
#	122145
#	141589
#	159575
#
# Disc length: 2388 seconds
#
# Revision: 0
# Processed by: cddbd v1.5.1PL2 Copyright (c) Steve Scherf et al.
# Submitted via: dBpowerAMP V4.0
#
DISCID=7e095209
DTITLE=Lindsey lin's - la tete dans les etoiles
DYEAR=2006
DGENRE=Reggae
TTITLE0=la tete dans les etoiles
TTITLE1=c'est du passe
TTITLE2=verite
TTITLE3=aime moi
TTITLE4=plus loin que demain
TTITLE5=faut rester positif
TTITLE6=la routine
TTITLE7=flan m'a larmou
TTITLE8=rencontre
EXTD=La tete dans les etoiles
EXTT0=
EXTT1=
EXTT2=
EXTT3=
EXTT4=
EXTT5=
EXTT6=
EXTT7=
EXTT8=
PLAYORDER=
